<?xml version="1.0" encoding="iso-8859-1"?>
<!-- Uploaded to: SVG Repo, www.svgrepo.com, Generator: SVG Repo Mixer Tools -->
<svg height="800px" width="800px" version="1.1" id="Layer_1" xmlns="http://www.w3.org/2000/svg" xmlns:xlink="http://www.w3.org/1999/xlink" 
	 viewBox="0 0 511.999 511.999" xml:space="preserve">
<g>
	<ellipse style="fill:#B9F5ED;" cx="166.504" cy="166.348" rx="35.445" ry="35.391"/>
	<ellipse style="fill:#B9F5ED;" cx="345.495" cy="311.15" rx="35.444" ry="35.391"/>
</g>
<g>
	<path style="fill:#A87B2C;" d="M178.023,108.121h-23.031c-2.873,0-5.224,2.351-5.224,5.224v19.743c0,0.662,0.137,1.291,0.365,1.877
		c4.9-2.554,10.466-4.006,16.375-4.006c5.909,0,11.476,1.452,16.375,4.006c0.228-0.584,0.365-1.214,0.365-1.877v-19.743
		C183.247,110.472,180.896,108.121,178.023,108.121z"/>
	<path style="fill:#A87B2C;" d="M357.006,252.919h-23.031c-2.873,0-5.224,2.351-5.224,5.224v19.743c0,0.662,0.137,1.291,0.365,1.877
		c4.9-2.554,10.466-4.006,16.375-4.006c5.909,0,11.476,1.452,16.375,4.006c0.228-0.585,0.365-1.214,0.365-1.877v-19.743
		C362.23,255.27,359.879,252.919,357.006,252.919z"/>
</g>
<g>
	<ellipse style="fill:#8F5DAF;" cx="166.504" cy="280.649" rx="78.838" ry="78.712"/>
	<ellipse style="fill:#8F5DAF;" cx="345.495" cy="425.451" rx="78.838" ry="78.712"/>
</g>
<path style="opacity:0.1;enable-background:new    ;" d="M163.555,166.349c0-13.695,7.798-25.568,19.199-31.451
	c-4.868-2.512-10.388-3.939-16.246-3.939c-19.575,0-35.445,15.846-35.445,35.391c0,19.546,15.87,35.391,35.445,35.391
	c5.858,0,11.379-1.427,16.246-3.94C171.353,191.917,163.555,180.046,163.555,166.349z"/>
<path style="opacity:0.1;enable-background:new    ;" d="M120.163,280.65c0-37.912,26.847-69.557,62.591-77.036
	c-5.244-1.097-10.676-1.681-16.246-1.681c-43.541,0-78.838,35.243-78.838,78.717c0,43.473,35.297,78.716,78.838,78.716
	c5.57,0,11.003-0.585,16.246-1.681C147.009,350.206,120.163,318.562,120.163,280.65z"/>
<path style="opacity:0.1;enable-background:new    ;" d="M342.539,311.147c0-13.695,7.798-25.568,19.198-31.451
	c-4.868-2.512-10.388-3.94-16.246-3.94c-19.575,0-35.444,15.846-35.444,35.391c0,19.546,15.869,35.39,35.444,35.39
	c5.858,0,11.379-1.427,16.246-3.94C350.337,336.714,342.539,324.844,342.539,311.147z"/>
<path style="opacity:0.1;enable-background:new    ;" d="M299.145,425.448c0-37.912,26.847-69.557,62.591-77.036
	c-5.243-1.097-10.676-1.681-16.246-1.681c-43.541,0-78.838,35.243-78.838,78.717c0,43.473,35.297,78.715,78.838,78.715
	c5.57,0,11.003-0.585,16.246-1.681C325.992,495.003,299.145,463.359,299.145,425.448z"/>
<g>
	<path style="fill:#FFFFFF;" d="M352.9,481.697c-3.286-0.018-6.132-2.287-6.882-5.487c-0.749-3.198,0.793-6.496,3.73-7.972
		c7.554-3.792,15.087-9.339,21.787-16.038c6.817-6.817,12.427-14.475,16.224-22.146c1.217-2.46,3.711-3.955,6.367-3.955
		c0.522,0,1.048,0.057,1.574,0.176c3.202,0.725,5.49,3.548,5.535,6.833c0.004,0.229,0.005,0.462,0.005,0.692
		c0,26.41-21.578,47.898-48.105,47.898L352.9,481.697z"/>
	<path style="fill:#FFFFFF;" d="M173.208,338.546c-3.285-0.018-6.133-2.287-6.882-5.487c-0.749-3.198,0.793-6.496,3.73-7.972
		c7.554-3.792,15.087-9.339,21.787-16.038c6.817-6.817,12.427-14.475,16.224-22.146c1.217-2.46,3.711-3.955,6.367-3.955
		c0.522,0,1.048,0.057,1.574,0.176c3.202,0.725,5.49,3.548,5.535,6.833c0.004,0.229,0.005,0.462,0.005,0.692
		c0,26.41-21.578,47.898-48.105,47.898L173.208,338.546z"/>
</g>
<path d="M313.927,192.276c4.328,0,7.837-3.508,7.837-7.837c0-13.216,10.773-23.968,24.014-23.968c6.221,0,12.121,2.365,16.611,6.658
	c3.128,2.99,8.09,2.88,11.08-0.249c2.99-3.127,2.88-8.089-0.249-11.08c-7.421-7.096-17.168-11.003-27.443-11.003
	c-21.883,0-39.687,17.782-39.687,39.641C306.09,188.767,309.599,192.276,313.927,192.276z"/>
<path d="M373.953,343.711c0.019-0.017,0.039-0.031,0.057-0.048c3.257-2.852,3.586-7.802,0.736-11.058
	c-2.85-3.257-7.8-3.586-11.058-0.736c-5.031,4.405-11.494,6.83-18.197,6.83c-15.223,0-27.607-12.36-27.607-27.553
	c0-15.193,12.385-27.554,27.607-27.554c15.224,0,27.609,12.361,27.609,27.554c0,4.329,3.509,7.837,7.837,7.837
	s7.837-3.508,7.837-7.837c0-14.725-7.416-27.746-18.706-35.555v-17.449c0-7.202-5.859-13.061-13.061-13.061h-3.392v-21.778
	c18.144-3.644,31.851-19.686,31.851-38.865c0-4.329-3.509-7.837-7.837-7.837s-7.837,3.508-7.837,7.837
	c0,13.216-10.772,23.968-24.014,23.968c-4.328,0-7.837,3.508-7.837,7.837v28.838h-3.965c-7.202,0-13.061,5.859-13.061,13.061v17.45
	c-11.29,7.809-18.705,20.829-18.705,35.554c0,12.974,5.761,24.622,14.853,32.553c-33.867,11.778-58.247,43.964-58.247,81.748
	c0,47.725,38.882,86.552,86.674,86.552s86.675-38.827,86.675-86.552C432.166,387.677,407.802,355.5,373.953,343.711z
	 M336.587,260.755h17.806v8.087c-2.875-0.602-5.851-0.924-8.904-0.924c-3.051,0-6.029,0.322-8.904,0.924v-8.087H336.587z
	 M345.491,496.327c-39.15,0-71.001-31.796-71.001-70.879c0-39.083,31.851-70.881,71.001-70.881s71.002,31.797,71.002,70.881
	C416.493,464.53,384.641,496.327,345.491,496.327z"/>
<path d="M222.669,224.857c-3.352,2.738-3.849,7.676-1.111,11.027c10.287,12.59,15.951,28.488,15.951,44.767
	c0,39.082-31.852,70.88-71.002,70.88s-71.001-31.797-71.001-70.88c0-39.083,31.851-70.881,71.001-70.881
	c12.839,0,25.415,3.455,36.37,9.992c3.718,2.218,8.527,1.003,10.746-2.715c2.218-3.717,1.003-8.527-2.714-10.745
	c-5.064-3.022-10.409-5.502-15.948-7.421c9.078-7.93,14.828-19.57,14.828-32.533c0-14.725-7.415-27.746-18.706-35.555v-17.449
	c0-7.202-5.859-13.061-13.061-13.061h-3.392V78.506c18.143-3.644,31.85-19.685,31.85-38.864C206.482,17.784,188.678,0,166.794,0
	c-21.884,0-39.688,17.784-39.688,39.641c0,4.329,3.509,7.837,7.837,7.837c4.328,0,7.837-3.508,7.837-7.837
	c0-13.216,10.773-23.968,24.015-23.968c13.241,0,24.014,10.752,24.014,23.968c0,13.215-10.773,23.968-24.014,23.968
	c-4.328,0-7.837,3.508-7.837,7.837v28.838h-3.965c-7.202,0-13.061,5.859-13.061,13.061v17.449
	c-11.29,7.81-18.705,20.831-18.705,35.555c0,12.974,5.761,24.623,14.852,32.553c-33.867,11.779-58.246,43.964-58.246,81.748
	c0,47.726,38.882,86.553,86.674,86.553s86.675-38.827,86.675-86.553c0-19.882-6.921-39.302-19.487-54.683
	C230.957,222.617,226.021,222.118,222.669,224.857z M157.605,115.958h17.806v8.088c-2.875-0.602-5.851-0.924-8.904-0.924
	c-3.052,0-6.028,0.322-8.903,0.924V115.958z M166.508,138.795c15.223,0,27.608,12.361,27.608,27.554s-12.385,27.554-27.608,27.554
	c-15.223,0-27.608-12.361-27.608-27.554S151.285,138.795,166.508,138.795z"/>
</svg>