<?xml version="1.0" encoding="iso-8859-1"?>
<!-- Uploaded to: SVG Repo, www.svgrepo.com, Generator: SVG Repo Mixer Tools -->
<svg height="800px" width="800px" version="1.1" id="Layer_1" xmlns="http://www.w3.org/2000/svg" xmlns:xlink="http://www.w3.org/1999/xlink" 
	 viewBox="0 0 480 480" xml:space="preserve">
<path style="fill:#F9B170;" d="M240,104c70.72,0,128,57.28,128,128s-57.28,128-128,128s-128-57.28-128-128S169.28,104,240,104z
	 M336,232c0-53.04-42.96-96-96-96s-96,42.96-96,96s42.96,96,96,96S336,285.04,336,232z"/>
<g>
	<path id="SVGCleanerId_0" style="fill:#F36162;" d="M264,8.48l24,36l-40.48,50.64c-3.84,4.8-11.2,4.8-15.04,0L192,44.48l24-36H264z
		"/>
</g>
<path d="M240,106.72c-5.392,0-10.408-2.408-13.768-6.6l-40.488-50.648c-2.168-2.72-2.336-6.536-0.408-9.432l24-36
	c1.496-2.224,3.992-3.56,6.664-3.56h48c2.672,0,5.168,1.336,6.656,3.56l24,36c1.928,2.896,1.768,6.712-0.408,9.432l-40.48,50.64
	C250.408,104.32,245.392,106.72,240,106.72z M201.896,44.056l36.832,46.072c0.784,0.984,1.76,0.992,2.552,0l36.824-46.064
	L259.72,16.48h-39.44L201.896,44.056z"/>
<g>
	<path id="SVGCleanerId_0_1_" style="fill:#F36162;" d="M264,8.48l24,36l-40.48,50.64c-3.84,4.8-11.2,4.8-15.04,0L192,44.48l24-36
		H264z"/>
</g>
<path d="M240,106.72c-5.392,0-10.408-2.408-13.768-6.6l-40.488-50.648c-2.168-2.72-2.336-6.536-0.408-9.432l24-36
	c1.496-2.224,3.992-3.56,6.664-3.56h48c2.672,0,5.168,1.336,6.656,3.56l24,36c1.928,2.896,1.768,6.712-0.408,9.432l-40.48,50.64
	C250.408,104.32,245.392,106.72,240,106.72z M201.896,44.056l36.832,46.072c0.784,0.984,1.76,0.992,2.552,0l36.824-46.064
	L259.72,16.48h-39.44L201.896,44.056z"/>
<g>
	<path id="SVGCleanerId_0_2_" style="fill:#F36162;" d="M264,8.48l24,36l-40.48,50.64c-3.84,4.8-11.2,4.8-15.04,0L192,44.48l24-36
		H264z"/>
</g>
<path d="M240,128c-57.344,0-104,46.656-104,104s46.656,104,104,104s104-46.656,104-104S297.344,128,240,128z M240,320
	c-48.52,0-88-39.48-88-88s39.48-88,88-88s88,39.48,88,88S288.52,320,240,320z"/>
<path d="M268.024,98.936L273.888,96H280c4.424,0,8-3.584,8-8s-3.576-8-8-8h-8c-0.92,0-1.784,0.32-2.648,0.624l24.896-31.144
	c0.136-0.168,0.184-0.368,0.304-0.536c0.2-0.288,0.352-0.592,0.512-0.904c0.28-0.56,0.488-1.136,0.632-1.736
	c0.08-0.32,0.16-0.624,0.192-0.96c0.088-0.808,0.048-1.616-0.112-2.424c-0.024-0.128,0.016-0.248-0.016-0.376
	c-0.008-0.024-0.024-0.04-0.032-0.072c-0.216-0.848-0.56-1.672-1.072-2.424l-24-36.24C269.168,1.576,266.672,0,264,0h-48
	c-2.672,0-5.168,1.576-6.656,3.8l-24,36.12c-1.112,1.664-1.448,3.688-1.184,5.576c-0.664,3.968,1.752,7.72,5.544,8.888
	l20.952,26.224C209.792,80.304,208.92,80,208,80h-8c-4.424,0-8,3.584-8,8s3.576,8,8,8h6.112l5.872,2.936
	C150.392,111.888,104,166.616,104,232c0,74.992,61.008,136,136,136s136-61.008,136-136C376,166.616,329.608,111.888,268.024,98.936z
	 M238.728,90.128l-24.496-30.64l24.2,4.84c0.512,0.104,1.048,0.16,1.568,0.16c0.648,0,1.304-0.08,1.936-0.24l25.032-6.256
	L241.28,90.128C240.488,91.112,239.504,91.112,238.728,90.128z M220.28,16h39.44l15.328,23.232l-35.24,8.928l-35.936-7.368
	L220.28,16z M240,352c-66.168,0-120-53.832-120-120s53.832-120,120-120s120,53.832,120,120S306.168,352,240,352z"/>
<path id="SVGCleanerId_1" style="fill:#923730;" d="M424,376v64c0,17.68-14.32,32-32,32H88c-17.68,0-32-14.32-32-32v-64H424z"/>
<path d="M392,480H88c-22.056,0-40-17.944-40-40v-64c0-4.416,3.576-8,8-8h368c4.424,0,8,3.584,8,8v64
	C432,462.056,414.056,480,392,480z M64,384v56c0,13.232,10.768,24,24,24h304c13.232,0,24-10.768,24-24v-56H64z"/>
<g>
	<path id="SVGCleanerId_1_1_" style="fill:#923730;" d="M424,376v64c0,17.68-14.32,32-32,32H88c-17.68,0-32-14.32-32-32v-64H424z"/>
</g>
<path style="fill:#F58181;" d="M400,376H80c0-13.28,5.36-25.28,14.08-33.92C102.72,333.36,114.72,328,128,328h224
	C378.48,328,400,349.52,400,376z"/>
<path d="M424,368h-16.64c-3.904-27.096-27.208-48-55.36-48H128c-15.032,0-29.096,5.84-39.552,16.392
	c-8.688,8.616-14.12,19.64-15.816,31.608H56c-4.424,0-8,3.584-8,8v64c0,22.056,17.944,40,40,40h304c22.056,0,40-17.944,40-40v-64
	C432,371.584,428.424,368,424,368z M99.76,347.712C107.24,340.16,117.272,336,128,336h224c19.32,0,35.48,13.768,39.192,32h-302.4
	C90.328,360.344,94.088,353.336,99.76,347.712z M416,440c0,13.232-10.768,24-24,24H88c-13.232,0-24-10.768-24-24v-56h16h320h16V440z
	"/>
<path d="M456,48h-16V32c0-4.416-3.576-8-8-8s-8,3.584-8,8v16h-16c-4.424,0-8,3.584-8,8s3.576,8,8,8h16v16c0,4.416,3.576,8,8,8
	s8-3.584,8-8V64h16c4.424,0,8-3.584,8-8S460.424,48,456,48z"/>
<path d="M72,160H56v-16c0-4.416-3.576-8-8-8s-8,3.584-8,8v16H24c-4.424,0-8,3.584-8,8s3.576,8,8,8h16v16c0,4.416,3.576,8,8,8
	s8-3.584,8-8v-16h16c4.424,0,8-3.584,8-8S76.424,160,72,160z"/>
</svg>