<?xml version="1.0" encoding="iso-8859-1"?>
<!-- Uploaded to: SVG Repo, www.svgrepo.com, Generator: SVG Repo Mixer Tools -->
<svg height="800px" width="800px" version="1.1" id="Layer_1" xmlns="http://www.w3.org/2000/svg" xmlns:xlink="http://www.w3.org/1999/xlink" 
	 viewBox="0 0 512.001 512.001" xml:space="preserve">
<g>
	<path style="fill:#CCC4C1;" d="M481.47,47.15c-19.72-19.719-45.937-30.579-73.825-30.579c-27.888,0-54.105,10.86-73.825,30.579
		L23.667,357.304c-31.557,31.557-31.557,82.902,0,114.458c15.778,15.778,36.503,23.667,57.229,23.667
		c20.725,0,41.45-7.889,57.228-23.667l82.918-82.918c0,0,0.576-0.659,0.818-0.818c3.344-2.205,9.114-5.175,15.592,1.078
		c5.466,5.274,3.617,8.657,2.375,12.217c-0.564,1.618-1.256,3.091-1.671,4.368c-1.641,5.041,0.469,9.24,3.152,11.924
		c4.79,4.79,12.557,4.79,17.348,0L481.47,194.8C522.176,154.093,522.176,87.857,481.47,47.15z"/>
	<path style="fill:#CCC4C1;" d="M80.897,485.617c-19.022,0-36.881-7.384-50.29-20.793c-27.73-27.731-27.73-72.851,0-100.582
		L340.759,54.089c17.865-17.865,41.62-27.704,66.886-27.704c25.267,0,49.02,9.839,66.886,27.704
		c36.88,36.881,36.88,96.891,0,133.772L251.718,410.674c-0.594,0.594-1.272,0.719-1.736,0.719s-1.141-0.125-1.736-0.719
		c-1.051-1.051-0.876-1.591-0.76-1.948c0.151-0.46,0.358-0.952,0.572-1.477c0.345-0.852,0.705-1.755,1.034-2.697l0.251-0.698
		c1.363-3.746,4.553-12.517-5.078-21.81c-5.568-5.372-11.193-6.501-14.93-6.501c-6.373,0-11.27,3.232-12.879,4.293
		c-0.588,0.388-1.401,0.994-2.554,2.272l-82.717,82.717C117.778,478.233,99.917,485.617,80.897,485.617z"/>
</g>
<path style="fill:#11113F;" d="M80.897,495.43c-20.726,0-41.45-7.889-57.229-23.667c-31.557-31.557-31.557-82.902,0-114.458
	L333.82,47.15c19.719-19.719,45.937-30.579,73.825-30.579s54.105,10.86,73.825,30.579c40.707,40.707,40.707,106.943,0,147.65
	L258.657,417.613c-4.79,4.79-12.557,4.79-17.348,0c-4.791-4.79-4.79-12.557,0-17.348l222.813-222.813
	c31.142-31.142,31.142-81.814,0-112.956c-15.086-15.086-35.143-23.394-56.477-23.394c-21.334,0-41.393,8.308-56.479,23.394
	L41.014,374.651c-10.653,10.653-16.52,24.816-16.52,39.883s5.867,29.23,16.52,39.883c21.992,21.992,57.774,21.99,79.765,0
	l244.27-244.27c12.817-12.818,12.817-33.672,0-46.488c-12.815-12.817-33.671-12.817-46.487,0l-156.93,156.929
	c-4.789,4.79-12.557,4.79-17.346,0c-4.79-4.79-4.79-12.557,0-17.348l156.93-156.929c22.382-22.382,58.8-22.382,81.182,0
	c22.382,22.383,22.382,58.8,0,81.182l-244.274,244.27C122.347,487.54,101.622,495.43,80.897,495.43z"/>
</svg>